<?xml version="1.0" encoding="UTF-8" standalone="no"?>
<!-- Created with Inkscape (http://www.inkscape.org/) -->

<svg
   xmlns:dc="http://purl.org/dc/elements/1.1/"
   xmlns:cc="http://creativecommons.org/ns#"
   xmlns:rdf="http://www.w3.org/1999/02/22-rdf-syntax-ns#"
   xmlns:svg="http://www.w3.org/2000/svg"
   xmlns="http://www.w3.org/2000/svg"
   xmlns:sodipodi="http://sodipodi.sourceforge.net/DTD/sodipodi-0.dtd"
   xmlns:inkscape="http://www.inkscape.org/namespaces/inkscape"
   width="59.895889mm"
   height="59.86837mm"
   viewBox="0 0 59.895889 59.86837"
   version="1.1"
   id="svg5405"
   inkscape:version="0.92.2 (5c3e80d, 2017-08-06)"
   sodipodi:docname="easy-to-use-icon.svg">
  <defs
     id="defs5399" />
  <sodipodi:namedview
     id="base"
     pagecolor="#ffffff"
     bordercolor="#666666"
     borderopacity="1.0"
     inkscape:pageopacity="0.0"
     inkscape:pageshadow="2"
     inkscape:zoom="0.98994949"
     inkscape:cx="157.66342"
     inkscape:cy="8.8543425"
     inkscape:document-units="mm"
     inkscape:current-layer="layer1"
     showgrid="false"
     fit-margin-top="0"
     fit-margin-left="0"
     fit-margin-right="0"
     fit-margin-bottom="0"
     inkscape:window-width="1918"
     inkscape:window-height="1040"
     inkscape:window-x="0"
     inkscape:window-y="38"
     inkscape:window-maximized="0" />
  <metadata
     id="metadata5402">
    <rdf:RDF>
      <cc:Work
         rdf:about="">
        <dc:format>image/svg+xml</dc:format>
        <dc:type
           rdf:resource="http://purl.org/dc/dcmitype/StillImage" />
        <dc:title></dc:title>
      </cc:Work>
    </rdf:RDF>
  </metadata>
  <g
     inkscape:label="icon"
     inkscape:groupmode="layer"
     id="layer1"
     transform="translate(-1.8020555,-0.9705744)">
    <g
       transform="translate(-21.809101,-22.565814)"
       style="display:inline"
       id="g5345">
      <circle
         r="29.934185"
         cy="53.470573"
         cx="53.545341"
         id="path4557"
         style="opacity:1;fill:#272b38;fill-opacity:1;stroke:none;stroke-width:0.26499999;stroke-linejoin:miter;stroke-miterlimit:4;stroke-dasharray:none;stroke-opacity:1;paint-order:markers fill stroke" />
      <path
         style="display:inline;fill:#48d8a0;fill-opacity:1;fill-rule:evenodd;stroke:none;stroke-width:0.17564815px;stroke-linecap:butt;stroke-linejoin:miter;stroke-opacity:1"
         d="m 107.46801,52.732851 v 1.847736 h -0.53381 c 0,0 -0.65105,0.0247 -1.39592,0.697789 -1.13227,1.023152 -1.02645,2.012063 -1.02645,2.012063 v 4.393263 H 92.894783 v 1.642242 h 11.617047 v 4.393262 c 0,0 -0.10582,0.988569 1.02645,2.01172 0.74487,0.673092 1.39592,0.698132 1.39592,0.698132 h 0.53381 v 1.847735 h 1.35509 v -0.69813 h 6.61048 v -2.997341 h 5.5017 c 0,0 1.23245,-0.02831 1.2587,-1.195573 0.0943,-1.399252 -1.2292,-1.337946 -1.2292,-1.337946 h -5.5312 v -3.543151 -3.54281 h 5.5312 c 0,0 1.32347,0.06131 1.2292,-1.337945 -0.0262,-1.167258 -1.2587,-1.195917 -1.2587,-1.195917 h -5.5017 v -2.996996 h -6.61048 v -0.698133 z"
         id="path4806"
         inkscape:connector-curvature="0"
         sodipodi:nodetypes="cccscccccccccccccccccccccccccccc"
         transform="translate(-68.160553,-9.0342477)" />
      <rect
         style="display:inline;opacity:1;fill:#36b583;fill-opacity:1;stroke:none;stroke-width:0.68106931;stroke-linejoin:miter;stroke-miterlimit:4;stroke-dasharray:none;stroke-opacity:1;paint-order:markers fill stroke"
         id="rect4844"
         width="6.734848"
         height="1.5743802"
         x="108.63223"
         y="61.717632"
         transform="translate(-68.160553,-9.0342477)" />
      <rect
         style="display:inline;opacity:1;fill:#75e3b7;fill-opacity:1;stroke:none;stroke-width:1;stroke-linejoin:miter;stroke-miterlimit:4;stroke-dasharray:none;stroke-opacity:1;paint-order:markers fill stroke"
         id="rect4842"
         width="1.35509"
         height="19.543941"
         x="107.46801"
         y="52.732849"
         transform="translate(-68.160553,-9.0342477)" />
      <path
         inkscape:connector-curvature="0"
         transform="scale(0.26458333)"
         id="rect4846"
         d="m 89.462891,198.99023 a 113.13708,113.13708 0 0 0 -0.167969,3.3418 113.13708,113.13708 0 0 0 0.101562,2.86524 h 47.994136 v -6.20704 z"
         style="display:inline;opacity:1;fill:#36b583;fill-opacity:1;stroke:none;stroke-width:3.77952766;stroke-linejoin:miter;stroke-miterlimit:4;stroke-dasharray:none;stroke-opacity:1;paint-order:markers fill stroke" />
      <path
         style="display:inline;fill:#9bddc5;fill-opacity:1;fill-rule:evenodd;stroke:none;stroke-width:0.17564815px;stroke-linecap:butt;stroke-linejoin:miter;stroke-opacity:1"
         d="m 115.43358,56.42772 v 2.533695 h 5.48235 c 0,0 1.32365,0.06135 1.22938,-1.337903 -0.0262,-1.16726 -1.25883,-1.195792 -1.25883,-1.195792 z m 0,9.620083 v 2.533179 h 5.4529 c 0,0 1.23258,-0.02801 1.25883,-1.195276 0.0943,-1.399252 -1.22938,-1.337903 -1.22938,-1.337903 z"
         id="path4806-6"
         inkscape:connector-curvature="0"
         transform="translate(-68.160553,-9.0342477)" />
      <g
         transform="translate(-28.9305,-5.0105826)"
         id="g4962">
        <path
           sodipodi:nodetypes="ccccccccccccccccscccc"
           style="fill:#48d8a0;fill-opacity:1;fill-rule:evenodd;stroke:none;stroke-width:0.17564815px;stroke-linecap:butt;stroke-linejoin:miter;stroke-opacity:1"
           d="m 93.774637,48.709248 v 0.698149 h -6.483842 v 18.14773 h 6.483842 v 0.698149 h 1.354955 v -1.847432 h 0.533818 c 0,0 0.651428,-0.02506 1.396296,-0.698151 1.132272,-1.023149 1.026295,-2.011762 1.026295,-2.011762 V 59.3024 H 111.81953 V 57.660124 H 98.086001 v -4.393015 c 0,0 0.105977,-0.989126 -1.026295,-2.012281 -0.744868,-0.673086 -1.396296,-0.697629 -1.396296,-0.697629 h -0.533818 v -1.847951 z"
           id="path4806-61"
           inkscape:connector-curvature="0" />
        <rect
           style="opacity:1;fill:#75e3b7;fill-opacity:1;stroke:none;stroke-width:1;stroke-linejoin:miter;stroke-miterlimit:4;stroke-dasharray:none;stroke-opacity:1;paint-order:markers fill stroke"
           id="rect4842-7"
           width="1.35509"
           height="19.543941"
           x="-95.129791"
           y="48.70929"
           transform="scale(-1,1)" />
        <path
           inkscape:connector-curvature="0"
           id="rect4846-9"
           transform="matrix(0.26458333,0,0,0.26458333,28.9305,5.0105826)"
           d="m 261.375,198.99023 v 6.20704 h 54.09375 a 113.13708,113.13708 0 0 0 0.14844,-2.94336 113.13708,113.13708 0 0 0 -0.11524,-3.26368 z"
           style="opacity:1;fill:#36b583;fill-opacity:1;stroke:none;stroke-width:3.77952766;stroke-linejoin:miter;stroke-miterlimit:4;stroke-dasharray:none;stroke-opacity:1;paint-order:markers fill stroke" />
        <path
           inkscape:connector-curvature="0"
           id="rect4911"
           d="m 83.566901,48.139152 v 1.26814 H 85.17507 V 67.555023 H 83.566901 V 68.82316 H 93.839139 V 48.139152 Z"
           style="display:inline;opacity:1;fill:#3cc18d;fill-opacity:1;stroke:none;stroke-width:1.63624358;stroke-linejoin:miter;stroke-miterlimit:4;stroke-dasharray:none;stroke-opacity:1;paint-order:markers fill stroke" />
      </g>
    </g>
  </g>
</svg>
