<?xml version="1.0" encoding="UTF-8" standalone="no"?>
<!-- Created with Inkscape (http://www.inkscape.org/) -->

<svg
   xmlns:dc="http://purl.org/dc/elements/1.1/"
   xmlns:cc="http://creativecommons.org/ns#"
   xmlns:rdf="http://www.w3.org/1999/02/22-rdf-syntax-ns#"
   xmlns:svg="http://www.w3.org/2000/svg"
   xmlns="http://www.w3.org/2000/svg"
   xmlns:sodipodi="http://sodipodi.sourceforge.net/DTD/sodipodi-0.dtd"
   xmlns:inkscape="http://www.inkscape.org/namespaces/inkscape"
   width="59.86837mm"
   height="59.86837mm"
   viewBox="0 0 59.86837 59.86837"
   version="1.1"
   id="svg6024"
   inkscape:version="0.92.2 (5c3e80d, 2017-08-06)"
   sodipodi:docname="versatile-icon.svg">
  <defs
     id="defs6018" />
  <sodipodi:namedview
     id="base"
     pagecolor="#ffffff"
     bordercolor="#666666"
     borderopacity="1.0"
     inkscape:pageopacity="0.0"
     inkscape:pageshadow="2"
     inkscape:zoom="0.35"
     inkscape:cx="-502.57721"
     inkscape:cy="13.137077"
     inkscape:document-units="mm"
     inkscape:current-layer="layer1"
     showgrid="false"
     fit-margin-top="0"
     fit-margin-left="0"
     fit-margin-right="0"
     fit-margin-bottom="0"
     inkscape:window-width="1918"
     inkscape:window-height="1040"
     inkscape:window-x="0"
     inkscape:window-y="38"
     inkscape:window-maximized="0" />
  <metadata
     id="metadata6021">
    <rdf:RDF>
      <cc:Work
         rdf:about="">
        <dc:format>image/svg+xml</dc:format>
        <dc:type
           rdf:resource="http://purl.org/dc/dcmitype/StillImage" />
        <dc:title></dc:title>
      </cc:Work>
    </rdf:RDF>
  </metadata>
  <g
     inkscape:label="icon"
     inkscape:groupmode="layer"
     id="layer1"
     transform="translate(-96.309863,-92.440815)">
    <g
       id="g5360"
       transform="translate(77.913218,-38.319931)">
      <circle
         r="29.934185"
         cy="160.69493"
         cx="48.33083"
         id="path4557-3"
         style="opacity:1;fill:#272b38;fill-opacity:1;stroke:none;stroke-width:0.26499999;stroke-linejoin:miter;stroke-miterlimit:4;stroke-dasharray:none;stroke-opacity:1;paint-order:markers fill stroke" />
      <g
         transform="translate(-44.9573,33.411846)"
         id="g5087">
        <path
           style="fill:#97b8ad;fill-opacity:1;fill-rule:evenodd;stroke:none;stroke-width:0.26458332px;stroke-linecap:butt;stroke-linejoin:miter;stroke-opacity:1"
           d="m 87.575391,130.7829 2.36157,4.32955 0.21867,0.65599 1.13705,2.09917 4.54821,11.28306 c 0,0 -2.58024,-0.91839 -4.37328,-4.15461 -1.79304,-3.23623 -2.88636,-5.16047 -2.88636,-5.16047 0,0 0.43732,-1.31199 0.43732,-2.31784 0,-1.00585 -0.52479,-2.2741 -0.52479,-2.2741 l -2.6677,-4.98554 z"
           id="path5055"
           inkscape:connector-curvature="0" />
        <path
           style="fill:#b2d3c7;fill-opacity:1;fill-rule:evenodd;stroke:none;stroke-width:0.26458332px;stroke-linecap:butt;stroke-linejoin:miter;stroke-opacity:1"
           d="m 79.834681,130.56424 -0.78719,0.34987 -0.21866,0.87465 0.65599,0.74346 11.19559,9.22762 0.83092,-0.21867 7.69697,5.4666 c 0,0 -0.65599,-2.44904 -1.44318,-3.41116 -0.78719,-0.96212 -1.88051,-1.83677 -1.88051,-1.83677 l -5.64152,-4.54821 c 0,0 -1.70559,0.74346 -2.71144,0.30613 -1.00585,-0.43733 -2.23037,-1.74931 -2.23037,-1.74931 l -5.2042,-4.63568 z"
           id="path5057"
           inkscape:connector-curvature="0" />
        <circle
           r="0.95863616"
           cy="139.25795"
           cx="90.142731"
           id="path5065"
           style="opacity:1;fill:#97b8ad;fill-opacity:1;stroke:none;stroke-width:1;stroke-linejoin:miter;stroke-miterlimit:4;stroke-dasharray:none;stroke-opacity:1;paint-order:markers fill stroke" />
        <path
           inkscape:connector-curvature="0"
           id="path5044"
           d="m 104.00841,123.14875 -14.256884,-9.88361 c 0,0 -0.787193,-0.63413 -2.405305,-0.72159 -0.96212,-0.0875 -1.793039,-0.78719 -1.793039,-0.78719 l -0.725349,0.88591 c 0,0 1.162671,0.71033 1.359467,1.78178 0.196807,0.9184 1.727446,1.98985 1.727446,1.98985 l 14.344354,10.05854 z"
           style="fill:#97b8ad;fill-opacity:1;fill-rule:evenodd;stroke:none;stroke-width:0.26458332px;stroke-linecap:butt;stroke-linejoin:miter;stroke-opacity:1"
           sodipodi:nodetypes="ccccccccc" />
        <path
           style="fill:#b2d3c7;fill-opacity:1;fill-rule:evenodd;stroke:none;stroke-width:0.26458332px;stroke-linecap:butt;stroke-linejoin:miter;stroke-opacity:1"
           d="m 105.61832,124.40267 0.74217,-0.68032 -10.823314,-14.90525 c 0,0 -2.28835,-2.22651 -3.09237,-2.65944 -0.80402,-0.43293 -1.79358,-0.74217 -1.79358,-0.74217 0,0 0.68032,2.84498 1.2988,3.71085 0.61847,0.86586 7.298,9.64821 7.298,9.64821 v 0.37108 l 1.484334,1.85543 0.61848,0.24739 -0.37109,0.80401 2.84499,3.33977 z"
           id="path5040"
           inkscape:connector-curvature="0" />
        <g
           id="g5036"
           transform="translate(-52.65427,-10.84573)">
          <g
             id="g5022">
            <path
               style="fill:#48d8a0;fill-opacity:1;fill-rule:evenodd;stroke:none;stroke-width:0.26458332px;stroke-linecap:butt;stroke-linejoin:miter;stroke-opacity:1"
               d="m 133.06416,134.91069 c 0,0 -3.58613,-0.12777 -3.75687,4.03903 0.17075,4.1668 3.75687,4.03903 3.75687,4.03903 h 25.75812 c 0,0 3.78559,-0.0876 3.76049,-4.03903 0.0251,-3.95138 -3.76049,-4.03903 -3.76049,-4.03903 z"
               id="path4980"
               inkscape:connector-curvature="0" />
          </g>
          <path
             sodipodi:nodetypes="ccccscc"
             inkscape:connector-curvature="0"
             id="path5001"
             d="m 129.39471,138.16253 h 2.2741 v 1.57438 l -2.27144,0.008 c 0,0 -0.0888,-0.32096 -0.0952,-0.81258 -0.006,-0.49687 0.0925,-0.76953 0.0925,-0.76953 z"
             style="fill:#3bb282;fill-opacity:1;fill-rule:evenodd;stroke:none;stroke-width:0.26458332px;stroke-linecap:butt;stroke-linejoin:miter;stroke-opacity:1" />
          <path
             inkscape:connector-curvature="0"
             id="rect5003"
             d="m 157.53735,137.2963 v 1.40712 h -1.40713 v 0.49259 h 1.40713 v 1.40713 h 0.49259 v -1.40713 h 1.40712 v -0.49259 h -1.40712 v -1.40712 z"
             style="opacity:1;fill:#3bb282;fill-opacity:1;stroke:none;stroke-width:0.80441624;stroke-linejoin:miter;stroke-miterlimit:4;stroke-dasharray:none;stroke-opacity:1;paint-order:markers fill stroke" />
        </g>
      </g>
    </g>
  </g>
</svg>
